<?xml version="1.0" standalone="no"?>
<!DOCTYPE svg PUBLIC "-//W3C//DTD SVG 20010904//EN"
 "http://www.w3.org/TR/2001/REC-SVG-20010904/DTD/svg10.dtd">
<svg version="1.0" xmlns="http://www.w3.org/2000/svg"
 width="700.000000pt" height="700.000000pt" viewBox="0 0 700.000000 700.000000"
 preserveAspectRatio="xMidYMid meet">
<metadata>
Created by potrace 1.14, written by Peter Selinger 2001-2017
</metadata>
<g transform="translate(0.000000,700.000000) scale(0.100000,-0.100000)"
fill="#000000" stroke="none">
<path d="M1501 5785 c9 -11 110 -132 225 -269 115 -137 231 -277 258 -310 27
-34 106 -131 175 -216 413 -510 651 -812 652 -827 5 -77 -71 -124 -143 -88
-18 9 -58 48 -88 87 -30 38 -60 75 -65 81 -6 7 -52 64 -103 127 -51 63 -98
122 -105 130 -7 8 -59 74 -117 145 -57 72 -140 174 -185 228 -44 54 -89 111
-100 126 -33 46 -147 181 -153 181 -2 0 0 -6 6 -12 6 -7 146 -258 311 -558
212 -384 301 -553 301 -575 0 -22 -13 -46 -44 -83 -75 -88 -116 -197 -131
-353 -21 -214 -107 -385 -331 -659 -146 -179 -187 -273 -188 -435 0 -164 42
-295 149 -460 57 -87 105 -181 107 -209 2 -23 6 -26 28 -21 14 3 39 8 55 11
17 3 48 10 70 16 22 6 45 12 50 14 50 11 196 73 256 108 154 91 226 181 233
297 8 126 -44 207 -200 312 -146 98 -219 201 -223 318 -3 77 17 144 84 283 42
89 79 184 90 236 8 36 16 97 20 145 8 108 17 160 32 190 30 59 86 90 179 99
104 10 208 52 275 113 96 87 123 232 56 303 -17 19 -61 69 -97 110 -36 41 -68
77 -71 80 -3 3 -43 48 -90 100 -46 52 -98 111 -116 130 -17 19 -41 46 -53 60
-12 14 -56 63 -98 110 -153 168 -188 207 -266 295 -99 112 -692 700 -645 640z"/>
<path d="M2830 5130 c19 -5 49 -12 65 -15 48 -9 145 -45 210 -77 164 -82 290
-203 495 -473 189 -250 274 -341 387 -416 98 -66 282 -128 428 -144 33 -3 74
-8 90 -10 17 -3 75 -7 130 -10 370 -19 470 -57 579 -220 l27 -40 -6 45 c-33
247 -267 572 -538 748 -124 80 -290 149 -427 179 -159 33 -408 39 -558 13
l-74 -13 -39 46 c-125 145 -258 253 -394 317 -106 49 -189 70 -310 75 -75 4
-91 2 -65 -5z"/>
<path d="M2779 4992 c-13 -232 43 -431 168 -604 90 -124 268 -234 348 -214 40
10 40 30 -2 93 -64 96 -91 166 -117 296 -4 15 -8 37 -11 50 -3 12 -7 33 -10
46 -14 74 -51 159 -89 210 -48 65 -163 130 -254 144 -29 5 -32 3 -33 -21z"/>
<path d="M3948 4024 c-14 -191 29 -327 145 -451 108 -115 266 -206 597 -343
325 -134 432 -190 548 -287 90 -76 149 -186 155 -290 1 -23 5 -43 8 -43 9 0
57 104 80 172 28 85 35 304 13 397 -74 312 -309 520 -684 605 -76 18 -92 20
-230 41 -378 56 -498 94 -597 188 -29 28 -33 29 -35 11z"/>
<path d="M3066 3810 c-72 -23 -126 -83 -147 -163 -20 -82 -1 -144 53 -170 33
-16 121 -17 193 -2 52 10 134 55 155 85 48 68 4 182 -91 230 -44 23 -124 33
-163 20z"/>
<path d="M4254 3290 c45 -152 49 -256 16 -362 -37 -119 -136 -223 -263 -275
-80 -33 -100 -38 -292 -68 -88 -14 -194 -35 -235 -46 -79 -22 -238 -95 -280
-129 l-25 -20 40 14 c122 41 248 61 455 71 315 15 471 69 592 204 82 91 120
200 114 324 -6 111 -39 200 -109 287 l-20 25 7 -25z"/>
<path d="M4469 3143 c-18 -66 -16 -205 4 -281 27 -101 88 -215 238 -443 209
-319 259 -433 259 -599 0 -61 -6 -101 -26 -158 -14 -42 -30 -81 -35 -87 -5 -5
-9 -15 -9 -23 0 -44 243 147 308 244 50 74 93 175 130 304 12 41 10 270 -2
325 -51 231 -192 395 -474 552 -52 29 -92 52 -149 84 -21 12 -56 31 -78 42
-22 12 -62 36 -90 54 -27 18 -53 33 -56 33 -4 0 -12 -21 -20 -47z"/>
<path d="M3265 2248 c-144 -16 -336 -86 -481 -174 -43 -26 -83 -51 -89 -56 -5
-4 -44 -34 -86 -67 -43 -33 -80 -64 -83 -69 -3 -5 33 -14 80 -21 200 -28 292
-76 456 -242 148 -149 191 -174 303 -174 88 0 137 19 187 72 32 34 58 101 58
152 0 38 -30 114 -50 126 -6 4 -4 -7 5 -26 43 -82 -1 -197 -89 -233 -71 -29
-145 -14 -208 42 -51 46 -71 91 -74 163 -3 69 23 121 82 162 110 77 282 47
401 -72 65 -64 90 -107 173 -291 36 -80 80 -166 98 -191 128 -187 332 -231
530 -114 92 54 91 64 -4 33 -81 -28 -156 -36 -216 -23 -151 30 -210 132 -248
425 -43 334 -205 517 -505 569 -85 15 -159 18 -240 9z"/>
</g>
</svg>
